# 3ds Max Wavefront OBJ Exporter v0.97b - (c)2007 guruware
# File Created: 09.03.2016 11:43:02

mtllib MockGalleon.mtl

#
# object Box001
#

v  -104.4450 -3.7087 -3.9773
v  -81.5916 -3.7087 -3.9773
v  -81.5916 -3.7087 3.0232
v  -104.4450 -3.7087 3.0232
v  -81.5916 26.9284 41.2646
v  -81.5916 26.9284 -42.2187
v  -95.6318 26.9284 -42.2187
v  -95.6318 26.9284 41.2646
v  -81.5916 6.2913 42.4182
v  -81.5916 33.2204 48.0204
v  -104.4450 33.2204 48.0204
v  -104.4450 6.2913 42.4182
v  85.5191 6.2913 42.4182
v  153.0892 6.2913 -0.4770
v  153.0892 18.8084 -0.4770
v  85.5191 18.8084 45.2193
v  -81.5916 6.2913 -43.3723
v  -81.5916 33.2204 -48.9745
v  -3.8468 33.2204 -48.9745
v  -3.8468 6.2913 -43.3723
v  -104.4450 6.2913 -43.3723
v  -104.4450 33.2204 -48.9745
v  -104.4450 -3.7087 -43.3723
v  -104.4450 -3.7087 42.4182
v  -81.5916 -3.7087 -43.3723
v  153.0892 -3.7087 -0.4770
v  85.5191 -3.7087 -43.3723
v  85.5191 6.2913 -43.3723
v  -81.5916 -3.7087 42.4182
v  -3.8468 -3.7087 42.4182
v  -3.8468 6.2913 42.4182
v  -3.8468 26.9284 -42.2187
v  -3.8468 26.9284 41.2646
v  40.8362 26.9284 41.2646
v  40.8362 26.9284 -42.2187
v  -3.8468 33.2204 48.0204
v  40.8362 6.2913 42.4182
v  40.8362 33.2204 48.0204
v  40.8362 -3.7087 42.4182
v  -3.8468 -3.7087 -3.9773
v  40.8362 -3.7087 -3.9773
v  40.8362 -3.7087 3.0232
v  -3.8468 -3.7087 3.0232
v  -3.8468 -3.7087 -43.3723
v  40.8362 6.2913 -43.3723
v  40.8362 -3.7087 -43.3723
v  40.8362 33.2204 -48.9745
v  82.0371 26.9284 41.2646
v  140.1947 26.9284 -0.4770
v  82.0371 26.9284 -42.2187
v  85.5191 33.2204 48.0204
v  85.5191 -3.7087 42.4182
v  85.5191 33.2204 -48.9745
v  85.5191 18.8084 -46.1734
v  153.0892 33.2204 -0.4770
v  -81.5916 33.2204 41.2646
v  -95.6318 33.2204 41.2646
v  -3.8468 33.2204 41.2646
v  40.8362 33.2204 41.2646
v  82.0371 33.2204 41.2646
v  140.1947 33.2204 -0.4770
v  82.0371 33.2204 -42.2187
v  40.8362 33.2204 -42.2187
v  -3.8468 33.2204 -42.2187
v  -81.5916 33.2204 -42.2187
v  -95.6318 33.2204 -42.2187
# 66 vertices

vn 0.0000 -1.0000 -0.0000
vn 0.0000 1.0000 -0.0000
vn 0.0000 -0.2037 0.9790
vn 0.5502 -0.1658 0.8184
vn 1.0000 0.0000 -0.0000
vn 0.9999 -0.0167 -0.0000
vn 0.5640 -0.1596 0.8102
vn 0.0000 -0.2037 -0.9790
vn -1.0000 0.0000 -0.0000
vn 0.0000 0.0000 -1.0000
vn 0.5360 0.0000 -0.8442
vn 0.0000 0.0000 1.0000
vn -0.0029 -0.2084 0.9780
vn 0.0000 -0.1908 0.9816
vn -0.0028 -0.1992 -0.9800
vn 0.0000 -0.2184 -0.9759
vn 0.5502 -0.1658 -0.8184
vn 0.5640 -0.1596 -0.8102
vn 0.5360 0.0000 0.8442
vn 0.9995 -0.0312 -0.0000
vn 0.5760 -0.1560 0.8025
vn 0.5760 -0.1560 -0.8025
vn -0.5831 0.0000 -0.8124
vn -0.5831 0.0000 0.8124
# 24 vertex normals

vt 1.0000 0.5408 0.0000
vt 0.7728 0.5408 0.0000
vt 0.7728 0.4592 0.0000
vt 1.0000 0.4592 0.0000
vt 0.9646 0.0828 0.0000
vt 0.0275 0.0855 0.0000
vt 0.0263 0.0288 0.0000
vt 0.9634 0.0262 0.0000
vt 0.2120 0.1157 0.0000
vt 0.2120 0.4538 0.0000
vt 0.1081 0.4538 0.0000
vt 0.1081 0.1157 0.0000
vt 0.0000 0.0000 0.0000
vt 0.5000 0.0000 0.0000
vt 0.5000 0.5000 0.0000
vt 0.0000 0.5000 0.0000
vt 0.8765 0.6816 0.0000
vt 0.8765 0.8457 0.0000
vt 0.6195 0.9639 0.0000
vt 0.6195 0.6816 0.0000
vt 0.0649 0.1513 0.0000
vt 0.9245 0.1579 0.0000
vt 0.9793 0.5648 0.0000
vt 0.0074 0.5574 0.0000
vt 0.0654 0.0004 0.0000
vt 0.4601 0.0034 0.0000
vt 0.5303 0.0039 0.0000
vt 0.9250 0.0069 0.0000
vt 0.8765 0.5996 0.0000
vt 0.9521 0.5996 0.0000
vt 0.9521 0.6816 0.0000
vt 0.0556 0.6816 0.0000
vt 0.0556 0.5996 0.0000
vt 0.3246 0.5996 0.0000
vt 0.3246 0.8457 0.0000
vt 0.2120 -0.0072 0.0000
vt 0.5656 -0.0072 0.0000
vt 0.5656 0.1157 0.0000
vt 0.0343 0.3991 0.0000
vt 0.9713 0.3965 0.0000
vt 0.9752 0.5767 0.0000
vt 0.0382 0.5793 0.0000
vt 0.5656 0.4538 0.0000
vt 0.7688 0.1157 0.0000
vt 0.7688 0.4538 0.0000
vt 0.7688 -0.0072 0.0000
vt 0.0000 0.5408 0.0000
vt 0.0000 0.4592 0.0000
vt 0.6195 0.5996 0.0000
vt 0.4719 0.6816 0.0000
vt 0.4719 0.5996 0.0000
vt 0.4719 0.9639 0.0000
vt 0.9788 0.7429 0.0000
vt 0.5154 0.9788 0.0000
vt 0.0418 0.7455 0.0000
vt 0.9721 0.1157 0.0000
vt 0.9721 0.2733 0.0000
vt 0.9721 0.4538 0.0000
vt 0.9721 -0.0072 0.0000
vt 0.0000 1.0000 0.0000
vt 0.3246 0.9639 0.0000
vt 0.0556 0.8457 0.0000
vt 0.5000 1.0000 0.0000
vt 0.0556 0.9639 0.0000
vt 1.0000 1.0000 0.0000
vt 0.7728 1.0000 0.0000
vt 0.7728 0.0000 0.0000
vt 0.9521 0.8457 0.0000
vt 0.1081 -0.0072 0.0000
vt 1.0000 0.0000 0.0000
vt 0.2272 1.0000 0.0000
vt 0.2272 0.0000 0.0000
vt 0.9112 0.6973 0.0000
vt 0.0747 0.6909 0.0000
# 74 texture coords

g Box001
usemtl Material__26
s 2
f 1/1/1 2/2/1 3/3/1 4/4/1 
s 4
f 5/5/2 6/6/2 7/7/2 8/8/2 
s 8
f 9/9/3 10/10/3 11/11/3 12/12/3 
s 16
f 13/13/4 14/14/5 15/15/6 16/16/7 
s 32
f 17/17/8 18/18/8 19/19/8 20/20/8 
s 64
f 21/21/9 12/22/9 11/23/9 22/24/9 
s off
f 12/22/9 21/21/9 23/25/9 1/26/9 
f 12/22/9 1/26/9 4/27/9 24/28/9 
f 17/17/10 25/29/10 23/30/10 21/31/10 
f 14/32/11 26/33/11 27/34/11 28/35/11 
f 9/9/12 29/36/12 30/37/12 31/38/12 
f 32/39/2 33/40/2 34/41/2 35/42/2 
f 36/43/3 31/38/3 37/44/3 38/45/3 
f 31/38/12 30/37/12 39/46/12 37/44/12 
f 40/47/1 41/47/1 42/48/1 43/48/1 
f 44/49/10 20/20/10 45/50/10 46/51/10 
f 20/20/8 19/19/8 47/52/8 45/50/8 
f 35/42/2 34/41/2 48/53/2 49/54/2 
f 35/42/2 49/54/2 50/55/2 
f 38/45/13 37/44/13 13/56/13 16/57/13 
f 38/45/14 16/57/14 51/58/14 
f 37/44/12 39/46/12 52/59/12 13/56/12 
f 41/47/1 46/60/1 27/60/1 42/48/1 
f 39/13/1 42/48/1 27/60/1 26/16/1 
f 39/13/1 26/16/1 52/13/1 
f 46/51/10 45/50/10 28/35/10 27/34/10 
f 45/50/15 47/52/15 53/61/15 54/35/15 
f 45/50/16 54/35/16 28/35/16 
s 16
f 28/35/17 54/35/18 15/62/6 14/32/5 
s off
f 13/13/19 52/13/19 26/16/19 14/14/19 
s 16
f 55/63/20 51/60/21 16/16/7 15/15/6 
f 54/35/18 53/61/22 55/64/20 15/62/6 
s 2
f 23/65/1 25/66/1 2/2/1 1/1/1 
f 30/13/1 29/67/1 3/3/1 43/48/1 
s off
f 44/60/1 46/60/1 41/47/1 40/47/1 
f 39/13/1 30/13/1 43/48/1 42/48/1 
s 2
f 40/47/1 43/48/1 3/3/1 2/2/1 
s 4
f 33/40/2 32/39/2 6/6/2 5/5/2 
s 8
f 31/38/3 36/43/3 10/10/3 9/9/3 
s 32
f 21/31/8 22/68/8 18/18/8 17/17/8 
s off
f 20/20/10 44/49/10 25/29/10 17/17/10 
f 12/12/12 24/69/12 29/36/12 9/9/12 
s 2
f 44/60/1 40/47/1 2/2/1 25/66/1 
f 24/70/1 4/4/1 3/3/1 29/67/1 
s off
f 11/60/2 10/71/2 56/72/2 57/13/2 
f 10/71/2 36/65/2 58/70/2 56/72/2 
f 36/65/2 38/60/2 59/60/2 58/70/2 
f 38/60/2 51/60/2 60/60/2 59/60/2 
f 51/60/2 55/63/2 61/63/2 60/60/2 
f 55/63/2 53/65/2 62/65/2 61/63/2 
f 53/65/2 47/65/2 63/65/2 62/65/2 
f 47/65/2 19/60/2 64/65/2 63/65/2 
f 19/60/2 18/66/2 65/71/2 64/65/2 
f 18/66/2 22/65/2 66/60/2 65/71/2 
f 22/24/2 11/23/2 57/73/2 66/74/2 
f 57/13/10 56/72/10 5/72/10 8/13/10 
f 56/72/10 58/70/10 33/70/10 5/72/10 
f 58/70/10 59/60/10 34/60/10 33/70/10 
f 59/60/10 60/60/10 48/60/10 34/60/10 
f 60/60/23 61/63/23 49/63/23 48/60/23 
f 61/63/24 62/65/24 50/65/24 49/63/24 
f 62/65/12 63/65/12 35/65/12 50/65/12 
f 63/65/12 64/65/12 32/65/12 35/65/12 
f 64/65/12 65/71/12 6/71/12 32/65/12 
f 65/71/12 66/60/12 7/60/12 6/71/12 
f 66/60/5 57/13/5 8/13/5 7/60/5 
# 62 polygons - 4 triangles

#
# object cannon1
#

v  14.7035 16.2672 -19.3933
v  14.7035 16.2672 -55.0576
v  26.0512 16.2672 -55.0576
v  26.0512 16.2672 -19.3933
v  14.7035 24.9131 -19.3933
v  26.0512 24.9131 -19.3933
v  26.0512 24.9131 -55.0576
v  14.7035 24.9131 -55.0576
# 8 vertices

vn 0.0000 -1.0000 -0.0000
vn 0.0000 1.0000 -0.0000
vn 0.0000 0.0000 1.0000
vn 1.0000 0.0000 -0.0000
vn 0.0000 0.0000 -1.0000
vn -1.0000 0.0000 -0.0000
# 6 vertex normals

vt 1.0000 0.0000 0.0000
vt 1.0000 1.0000 0.0000
vt 0.0000 1.0000 0.0000
vt 0.0000 0.0000 0.0000
# 4 texture coords

g cannon1
usemtl wire_166229229
s 2
f 67/75/25 68/76/25 69/77/25 70/78/25 
s 4
f 71/78/26 72/75/26 73/76/26 74/77/26 
s 8
f 67/78/27 70/75/27 72/76/27 71/77/27 
s 16
f 70/78/28 69/75/28 73/76/28 72/77/28 
s 32
f 69/78/29 68/75/29 74/76/29 73/77/29 
s 64
f 68/78/30 67/75/30 71/76/30 74/77/30 
# 6 polygons

#
# object cannon2
#

v  -12.4376 16.2672 -19.3933
v  -12.4376 16.2672 -55.0576
v  -1.0899 16.2672 -55.0576
v  -1.0899 16.2672 -19.3933
v  -12.4376 24.9131 -19.3933
v  -1.0899 24.9131 -19.3933
v  -1.0899 24.9131 -55.0576
v  -12.4376 24.9131 -55.0576
# 8 vertices

vn 0.0000 -1.0000 -0.0000
vn 0.0000 1.0000 -0.0000
vn 0.0000 0.0000 1.0000
vn 1.0000 0.0000 -0.0000
vn 0.0000 0.0000 -1.0000
vn -1.0000 0.0000 -0.0000
# 6 vertex normals

vt 1.0000 0.0000 0.0000
vt 1.0000 1.0000 0.0000
vt 0.0000 1.0000 0.0000
vt 0.0000 0.0000 0.0000
# 4 texture coords

g cannon2
usemtl wire_166229229
s 2
f 75/79/31 76/80/31 77/81/31 78/82/31 
s 4
f 79/82/32 80/79/32 81/80/32 82/81/32 
s 8
f 75/82/33 78/79/33 80/80/33 79/81/33 
s 16
f 78/82/34 77/79/34 81/80/34 80/81/34 
s 32
f 77/82/35 76/79/35 82/80/35 81/81/35 
s 64
f 76/82/36 75/79/36 79/80/36 82/81/36 
# 6 polygons

#
# object cannon3
#

v  -38.4761 16.2672 -19.3933
v  -38.4761 16.2672 -55.0576
v  -27.1284 16.2672 -55.0576
v  -27.1284 16.2672 -19.3933
v  -38.4761 24.9131 -19.3933
v  -27.1284 24.9131 -19.3933
v  -27.1284 24.9131 -55.0576
v  -38.4761 24.9131 -55.0576
# 8 vertices

vn 0.0000 -1.0000 -0.0000
vn 0.0000 1.0000 -0.0000
vn 0.0000 0.0000 1.0000
vn 1.0000 0.0000 -0.0000
vn 0.0000 0.0000 -1.0000
vn -1.0000 0.0000 -0.0000
# 6 vertex normals

vt 1.0000 0.0000 0.0000
vt 1.0000 1.0000 0.0000
vt 0.0000 1.0000 0.0000
vt 0.0000 0.0000 0.0000
# 4 texture coords

g cannon3
usemtl wire_166229229
s 2
f 83/83/37 84/84/37 85/85/37 86/86/37 
s 4
f 87/86/38 88/83/38 89/84/38 90/85/38 
s 8
f 83/86/39 86/83/39 88/84/39 87/85/39 
s 16
f 86/86/40 85/83/40 89/84/40 88/85/40 
s 32
f 85/86/41 84/83/41 90/84/41 89/85/41 
s 64
f 84/86/42 83/83/42 87/84/42 90/85/42 
# 6 polygons

#
# object cannon4
#

v  -62.9612 16.2672 -19.3933
v  -62.9612 16.2672 -55.0576
v  -51.6135 16.2672 -55.0576
v  -51.6135 16.2672 -19.3933
v  -62.9612 24.9131 -19.3933
v  -51.6135 24.9131 -19.3933
v  -51.6135 24.9131 -55.0576
v  -62.9612 24.9131 -55.0576
# 8 vertices

vn 0.0000 -1.0000 -0.0000
vn 0.0000 1.0000 -0.0000
vn 0.0000 0.0000 1.0000
vn 1.0000 0.0000 -0.0000
vn 0.0000 0.0000 -1.0000
vn -1.0000 0.0000 -0.0000
# 6 vertex normals

vt 1.0000 0.0000 0.0000
vt 1.0000 1.0000 0.0000
vt 0.0000 1.0000 0.0000
vt 0.0000 0.0000 0.0000
# 4 texture coords

g cannon4
usemtl wire_166229229
s 2
f 91/87/43 92/88/43 93/89/43 94/90/43 
s 4
f 95/90/44 96/87/44 97/88/44 98/89/44 
s 8
f 91/90/45 94/87/45 96/88/45 95/89/45 
s 16
f 94/90/46 93/87/46 97/88/46 96/89/46 
s 32
f 93/90/47 92/87/47 98/88/47 97/89/47 
s 64
f 92/90/48 91/87/48 95/88/48 98/89/48 
# 6 polygons

#
# object cannon8
#

v  -62.9612 16.2672 60.5370
v  -62.9612 16.2672 24.8728
v  -51.6135 16.2672 24.8728
v  -51.6135 16.2672 60.5370
v  -62.9612 24.9131 60.5370
v  -51.6135 24.9131 60.5370
v  -51.6135 24.9131 24.8728
v  -62.9612 24.9131 24.8728
# 8 vertices

vn 0.0000 -1.0000 -0.0000
vn 0.0000 1.0000 -0.0000
vn 0.0000 0.0000 1.0000
vn 1.0000 0.0000 -0.0000
vn 0.0000 0.0000 -1.0000
vn -1.0000 0.0000 -0.0000
# 6 vertex normals

vt 1.0000 0.0000 0.0000
vt 1.0000 1.0000 0.0000
vt 0.0000 1.0000 0.0000
vt 0.0000 0.0000 0.0000
# 4 texture coords

g cannon8
usemtl wire_166229229
s 2
f 99/91/49 100/92/49 101/93/49 102/94/49 
s 4
f 103/94/50 104/91/50 105/92/50 106/93/50 
s 8
f 99/94/51 102/91/51 104/92/51 103/93/51 
s 16
f 102/94/52 101/91/52 105/92/52 104/93/52 
s 32
f 101/94/53 100/91/53 106/92/53 105/93/53 
s 64
f 100/94/54 99/91/54 103/92/54 106/93/54 
# 6 polygons

#
# object cannon7
#

v  -38.4761 16.2672 60.5370
v  -38.4761 16.2672 24.8728
v  -27.1284 16.2672 24.8728
v  -27.1284 16.2672 60.5370
v  -38.4761 24.9131 60.5370
v  -27.1284 24.9131 60.5370
v  -27.1284 24.9131 24.8728
v  -38.4761 24.9131 24.8728
# 8 vertices

vn 0.0000 -1.0000 -0.0000
vn 0.0000 1.0000 -0.0000
vn 0.0000 0.0000 1.0000
vn 1.0000 0.0000 -0.0000
vn 0.0000 0.0000 -1.0000
vn -1.0000 0.0000 -0.0000
# 6 vertex normals

vt 1.0000 0.0000 0.0000
vt 1.0000 1.0000 0.0000
vt 0.0000 1.0000 0.0000
vt 0.0000 0.0000 0.0000
# 4 texture coords

g cannon7
usemtl wire_166229229
s 2
f 107/95/55 108/96/55 109/97/55 110/98/55 
s 4
f 111/98/56 112/95/56 113/96/56 114/97/56 
s 8
f 107/98/57 110/95/57 112/96/57 111/97/57 
s 16
f 110/98/58 109/95/58 113/96/58 112/97/58 
s 32
f 109/98/59 108/95/59 114/96/59 113/97/59 
s 64
f 108/98/60 107/95/60 111/96/60 114/97/60 
# 6 polygons

#
# object cannon6
#

v  -12.4376 16.2672 60.5370
v  -12.4376 16.2672 24.8728
v  -1.0899 16.2672 24.8728
v  -1.0899 16.2672 60.5370
v  -12.4376 24.9131 60.5370
v  -1.0899 24.9131 60.5370
v  -1.0899 24.9131 24.8728
v  -12.4376 24.9131 24.8728
# 8 vertices

vn 0.0000 -1.0000 -0.0000
vn 0.0000 1.0000 -0.0000
vn 0.0000 0.0000 1.0000
vn 1.0000 0.0000 -0.0000
vn 0.0000 0.0000 -1.0000
vn -1.0000 0.0000 -0.0000
# 6 vertex normals

vt 1.0000 0.0000 0.0000
vt 1.0000 1.0000 0.0000
vt 0.0000 1.0000 0.0000
vt 0.0000 0.0000 0.0000
# 4 texture coords

g cannon6
usemtl wire_166229229
s 2
f 115/99/61 116/100/61 117/101/61 118/102/61 
s 4
f 119/102/62 120/99/62 121/100/62 122/101/62 
s 8
f 115/102/63 118/99/63 120/100/63 119/101/63 
s 16
f 118/102/64 117/99/64 121/100/64 120/101/64 
s 32
f 117/102/65 116/99/65 122/100/65 121/101/65 
s 64
f 116/102/66 115/99/66 119/100/66 122/101/66 
# 6 polygons

#
# object cannon5
#

v  14.7035 16.2672 60.5370
v  14.7035 16.2672 24.8728
v  26.0512 16.2672 24.8728
v  26.0512 16.2672 60.5370
v  14.7035 24.9131 60.5370
v  26.0512 24.9131 60.5370
v  26.0512 24.9131 24.8728
v  14.7035 24.9131 24.8728
# 8 vertices

vn 0.0000 -1.0000 -0.0000
vn 0.0000 1.0000 -0.0000
vn 0.0000 0.0000 1.0000
vn 1.0000 0.0000 -0.0000
vn 0.0000 0.0000 -1.0000
vn -1.0000 0.0000 -0.0000
# 6 vertex normals

vt 1.0000 0.0000 0.0000
vt 1.0000 1.0000 0.0000
vt 0.0000 1.0000 0.0000
vt 0.0000 0.0000 0.0000
# 4 texture coords

g cannon5
usemtl wire_166229229
s 2
f 123/103/67 124/104/67 125/105/67 126/106/67 
s 4
f 127/106/68 128/103/68 129/104/68 130/105/68 
s 8
f 123/106/69 126/103/69 128/104/69 127/105/69 
s 16
f 126/106/70 125/103/70 129/104/70 128/105/70 
s 32
f 125/106/71 124/103/71 130/104/71 129/105/71 
s 64
f 124/106/72 123/103/72 127/104/72 130/105/72 
# 6 polygons

